{
	"asset":{
		"generator":"Khronos glTF Blender I/O v3.6.27",
		"version":"2.0"
	},
	"scene":0,
	"scenes":[
		{
			"name":"Scene",
			"nodes":[
				0,
				1,
				2
			]
		}
	],
	"nodes":[
		{
			"mesh":0,
			"name":"pot"
		},
		{
			"mesh":1,
			"name":"lid"
		},
		{
			"mesh":2,
			"name":"jam"
		}
	],
	"meshes":[
		{
			"name":"Circle",
			"primitives":[
				{
					"attributes":{
						"POSITION":0,
						"NORMAL":1,
						"TEXCOORD_0":2,
						"TANGENT":3
					},
					"indices":4
				}
			]
		},
		{
			"name":"Circle.001",
			"primitives":[
				{
					"attributes":{
						"POSITION":5,
						"NORMAL":6,
						"TEXCOORD_0":7
					},
					"indices":8
				}
			]
		},
		{
			"name":"Circle.002",
			"primitives":[
				{
					"attributes":{
						"POSITION":9,
						"NORMAL":10,
						"TEXCOORD_0":11
					},
					"indices":8
				}
			]
		}
	],
	"accessors":[
		{
			"bufferView":0,
			"componentType":5126,
			"count":560,
			"max":[
				1.1973838806152344,
				1.9276573657989502,
				1.1973838806152344
			],
			"min":[
				-1.1973838806152344,
				0,
				-1.1973838806152344
			],
			"type":"VEC3"
		},
		{
			"bufferView":1,
			"componentType":5126,
			"count":560,
			"type":"VEC3"
		},
		{
			"bufferView":2,
			"componentType":5126,
			"count":560,
			"type":"VEC2"
		},
		{
			"bufferView":3,
			"componentType":5126,
			"count":560,
			"type":"VEC4"
		},
		{
			"bufferView":4,
			"componentType":5123,
			"count":840,
			"type":"SCALAR"
		},
		{
			"bufferView":5,
			"componentType":5126,
			"count":80,
			"max":[
				0.7969405651092529,
				2.0616469383239746,
				0.7969405651092529
			],
			"min":[
				-0.7969405651092529,
				1.9087352752685547,
				-0.7969405651092529
			],
			"type":"VEC3"
		},
		{
			"bufferView":6,
			"componentType":5126,
			"count":80,
			"type":"VEC3"
		},
		{
			"bufferView":7,
			"componentType":5126,
			"count":80,
			"type":"VEC2"
		},
		{
			"bufferView":8,
			"componentType":5123,
			"count":138,
			"type":"SCALAR"
		},
		{
			"bufferView":9,
			"componentType":5126,
			"count":80,
			"max":[
				1.067761778831482,
				1.3335895538330078,
				1.067761778831482
			],
			"min":[
				-1.067761778831482,
				0.06771034002304077,
				-1.067761778831482
			],
			"type":"VEC3"
		},
		{
			"bufferView":10,
			"componentType":5126,
			"count":80,
			"type":"VEC3"
		},
		{
			"bufferView":11,
			"componentType":5126,
			"count":80,
			"type":"VEC2"
		}
	],
	"bufferViews":[
		{
			"buffer":0,
			"byteLength":6720,
			"byteOffset":0,
			"target":34962
		},
		{
			"buffer":0,
			"byteLength":6720,
			"byteOffset":6720,
			"target":34962
		},
		{
			"buffer":0,
			"byteLength":4480,
			"byteOffset":13440,
			"target":34962
		},
		{
			"buffer":0,
			"byteLength":8960,
			"byteOffset":17920,
			"target":34962
		},
		{
			"buffer":0,
			"byteLength":1680,
			"byteOffset":26880,
			"target":34963
		},
		{
			"buffer":0,
			"byteLength":960,
			"byteOffset":28560,
			"target":34962
		},
		{
			"buffer":0,
			"byteLength":960,
			"byteOffset":29520,
			"target":34962
		},
		{
			"buffer":0,
			"byteLength":640,
			"byteOffset":30480,
			"target":34962
		},
		{
			"buffer":0,
			"byteLength":276,
			"byteOffset":31120,
			"target":34963
		},
		{
			"buffer":0,
			"byteLength":960,
			"byteOffset":31396,
			"target":34962
		},
		{
			"buffer":0,
			"byteLength":960,
			"byteOffset":32356,
			"target":34962
		},
		{
			"buffer":0,
			"byteLength":640,
			"byteOffset":33316,
			"target":34962
		}
	],
	"buffers":[
		{
			"byteLength":33956,
			"uri":"data:application/octet-stream;base64,"
		}
	]
}
